<svg xmlns="http://www.w3.org/2000/svg" width="103" height="50" fill="none"><g fill="#fff" clip-path="url(#a)"><path d="M25.04 44.771h-3.2l1.397-4.983h.393l1.41 4.983Zm-.91-6.456h-1.945l-3.47 11.595h1.13a.716.716 0 0 0 .724-.564l.87-3.125h4.022l1.04 3.683h1.628l-3.256-11a.738.738 0 0 0-.735-.58M32.125 39.44a.38.38 0 0 0 .416.42h2.716v10.05h1.13a.39.39 0 0 0 .433-.435V39.86h2.741a.382.382 0 0 0 .418-.42v-1.043h-7.854v1.043ZM53.256 44.083c0 2.939-1.06 4.43-3.148 4.43-2.089 0-3.174-1.491-3.174-4.43 0-2.939 1.068-4.43 3.174-4.43 2.105 0 3.148 1.488 3.148 4.43Zm-3.148-5.923c-3.08 0-4.711 2.045-4.711 5.923s1.63 5.923 4.71 5.923c2.146 0 4.698-1.027 4.698-5.923s-2.544-5.923-4.697-5.923ZM68.141 39.108l-2.294 6.848-.074.248-.073-.257-2.567-7.084a.736.736 0 0 0-.709-.548H60.78v11.598h1.105a.397.397 0 0 0 .433-.437v-8.972l.155.502 2.66 7.333.025.07h.684a.77.77 0 0 0 .777-.563l2.32-6.848.145-.469v9.384h1.13a.391.391 0 0 0 .416-.437v-11.16h-1.442c-.565 0-.865.228-1.048.792M84.246 38.315c-.529 0-.766.158-1.015.674l-2.295 4.674-2.614-5.289-.031-.059H76.55l3.606 7.096v4.499h1.187c.147 0 .39-.056.39-.437v-3.179a3.097 3.097 0 0 1 .367-1.57l3.222-6.414-1.076.005ZM9.999 11.18c4.587 0 6.218 4.699 6.218 8.681 0 3.982-1.62 8.695-6.218 8.695s-6.218-4.701-6.218-8.695c0-3.994 1.614-8.681 6.218-8.681Zm.09 21.037c5.088 0 6.34-3.68 6.34-3.68v1.996c0 1.129.847 1.693 1.769 1.693.729 0 1.769-.333 1.769-1.693V8.943c0-1.43-1.04-1.765-1.77-1.765-.776 0-1.768.335-1.768 1.765v1.495s-1.58-3.26-6.34-3.26C3.623 7.178 0 13.208 0 19.695c0 6.487 3.623 12.522 10.09 12.522ZM23.084 10.672h2.721v19.864c0 .98.738 1.693 1.9 1.693 1.161 0 1.896-.694 1.896-1.693V10.672h2.736c1.246 0 1.893-.643 1.893-1.748 0-1.106-.647-1.743-1.893-1.743H29.6V1.907c0-.847-.172-1.907-1.896-1.907-1.611 0-1.9 1.08-1.9 1.907V7.18h-2.721c-1.258 0-1.896.634-1.896 1.743 0 1.108.638 1.748 1.896 1.748Z"/><path d="M42.738 10.923c4.651 0 6.288 4.795 6.288 8.845 0 4.05-1.637 8.856-6.288 8.856-4.652 0-6.314-4.78-6.314-8.842 0-4.061 1.642-8.859 6.314-8.859Zm0 21.294c6.463 0 10.089-6.024 10.089-12.522S49.187 7.18 42.737 7.18c-6.449 0-10.097 6.027-10.097 12.514 0 6.487 3.629 12.522 10.098 12.522ZM100.956 28.624c-4.872 0-6.217-2.417-6.43-2.764h6.035s1.695.141 1.695-1.808c0-1.895-1.695-1.816-1.695-1.816h-7.385v-1.272h7.436s1.806.133 1.806-1.692-1.806-1.718-1.806-1.718h-7.436v-1.128h6.5s1.696.122 1.696-1.58c0-1.658-1.696-1.576-1.696-1.576h-6.5v-1.173h8.131s1.696.14 1.696-1.808c0-1.895-1.696-1.82-1.696-1.82h-4.222s1.808-1.821.55-2.95c-1.257-1.127-2.308.201-2.308.201L92.84 8.47H90.06L87.57 5.72s-1.074-1.303-2.3-.2c-1.227 1.102.55 2.95.55 2.95h-4.222s-1.696-.076-1.696 1.819c0 1.949 1.696 1.808 1.696 1.808h8.128v1.179h-6.5s-1.696-.082-1.696 1.576c0 1.693 1.696 1.58 1.696 1.58h6.5v1.128h-7.421s-1.806-.079-1.806 1.718c0 1.796 1.806 1.692 1.806 1.692h7.43v1.272H82.34s-1.695-.08-1.695 1.816c0 1.95 1.695 1.808 1.695 1.808h6.026c-.212.347-1.549 2.764-6.424 2.764-2.038 0-2.15 1.388-1.978 2.256a1.732 1.732 0 0 0 1.718 1.306s6.412.449 9.773-4.306c3.363 4.755 9.767 4.306 9.767 4.306a1.719 1.719 0 0 0 1.724-1.291c.164-.878.051-2.257-1.978-2.257M78.081 12.771c0-3.384-3.258-5.502-6.243-5.502-2.515 0-4.683 1.049-5.612 2.538-.732-1.5-2.434-2.538-4.418-2.538a5.045 5.045 0 0 0-3.937 1.796c0-1.362-.52-1.873-1.548-1.873-1.196 0-1.696.548-1.696 1.975v21.378a1.69 1.69 0 0 0 1.129 1.6c.22.077.453.109.685.092 1.88 0 1.81-1.692 1.81-1.692V14.393c0-.59.208-2.713 3.153-2.713 2.787 0 3.123 1.709 3.123 2.713v16.141s-.045 1.692 1.82 1.692c1.908 0 1.806-1.692 1.806-1.692V14.393c0-1.275.743-2.713 3.134-2.713 2.886 0 3.149 1.709 3.149 2.713v16.141s-.082 1.692 1.82 1.692c1.947 0 1.814-1.692 1.814-1.692l.011-17.763Z"/></g><defs><clipPath id="a"><path fill="#fff" d="M0 0h103v50H0z"/></clipPath></defs></svg>